<svg width="406" height="331" viewBox="0 0 406 331" fill="none" xmlns="http://www.w3.org/2000/svg">
<path fill-rule="evenodd" clip-rule="evenodd" d="M185.5 117.036V313L203.217 330.499C228.903 330.18 241.882 329.012 266.177 320.023C278.471 315.474 294.396 308.646 317.643 298.68C336.311 290.677 359.701 280.649 389.725 268.15L405.881 261.425L392.431 229.113L376.275 235.838C344.686 248.988 320.943 259.175 302.43 267.119C280.33 276.602 265.681 282.887 254.031 287.198C240.541 292.19 232.247 294.12 220.5 294.928V117.036H185.5Z" fill="white"/>
<path fill-rule="evenodd" clip-rule="evenodd" d="M220.5 46.5V313L202.783 330.499C177.097 330.18 164.118 329.012 139.823 320.023C127.529 315.474 111.604 308.646 88.357 298.68C69.6888 290.676 46.2986 280.649 16.2746 268.151L0.118546 261.425L13.5692 229.113L29.7254 235.838C61.3144 248.988 85.0569 259.175 103.57 267.119C125.67 276.602 140.318 282.887 151.969 287.198C165.459 292.19 173.753 294.12 185.5 294.928V46.5H220.5Z" fill="white"/>
<path fill-rule="evenodd" clip-rule="evenodd" d="M64.0156 202.613C69.2879 200.98 74.8982 203.933 76.5465 209.208C83.2222 230.572 90.3274 248.485 106.833 262.638C123.414 276.856 150.885 288.41 200.739 293.142C206.239 293.664 210.288 298.544 209.781 304.041C209.275 309.538 204.405 313.571 198.904 313.048C147.044 308.126 114.858 295.827 93.8335 277.799C72.7334 259.706 64.2847 236.981 57.4535 215.119C55.8053 209.845 58.7432 204.245 64.0156 202.613Z" fill="white"/>
<path fill-rule="evenodd" clip-rule="evenodd" d="M101.869 184.332C107.191 182.844 112.762 185.933 114.312 191.23C123.681 223.248 133.821 249.362 147.481 267.479C160.711 285.025 177.044 294.873 200.038 295.181C205.581 295.255 210.058 299.776 210.037 305.278C210.016 310.78 205.505 315.18 199.962 315.106C169.802 314.702 147.889 301.118 131.453 279.32C115.448 258.093 104.502 228.953 95.0396 196.617C93.4894 191.32 96.5469 185.819 101.869 184.332Z" fill="white"/>
<path fill-rule="evenodd" clip-rule="evenodd" d="M335.984 202.631C330.712 200.999 325.102 203.952 323.454 209.227C316.778 230.591 309.673 248.504 293.167 262.656C276.586 276.874 249.115 288.428 199.261 293.161C193.761 293.683 189.712 298.562 190.219 304.059C190.725 309.556 195.595 313.589 201.096 313.067C252.956 308.144 285.142 295.845 306.166 277.817C327.267 259.725 335.715 236.999 342.546 215.138C344.195 209.863 341.257 204.264 335.984 202.631Z" fill="white"/>
<path fill-rule="evenodd" clip-rule="evenodd" d="M298.131 184.35C292.809 182.862 287.238 185.951 285.688 191.249C276.319 223.267 266.179 249.381 252.519 267.497C239.289 285.044 222.956 294.892 199.962 295.199C194.419 295.274 189.942 299.794 189.963 305.296C189.984 310.798 194.495 315.198 200.038 315.124C230.198 314.721 252.111 301.136 268.547 279.339C284.553 258.112 295.498 228.972 304.96 196.636C306.511 191.338 303.453 185.838 298.131 184.35Z" fill="white"/>
<path fill-rule="evenodd" clip-rule="evenodd" d="M202.625 117.25C185.269 117.25 166.902 123.527 122.404 139.474C113.306 142.735 103.287 138.002 100.026 128.904C96.7653 119.806 101.498 109.787 110.596 106.526C111.575 106.175 112.545 105.827 113.506 105.483C153.77 91.0482 178.311 82.25 202.625 82.25C227.114 82.25 250.544 91.1653 288.436 105.583C289.356 105.933 290.284 106.287 291.222 106.643C300.255 110.079 304.793 120.188 301.357 129.222C297.921 138.255 287.812 142.793 278.778 139.357C236.819 123.397 219.791 117.25 202.625 117.25Z" fill="white"/>
<path fill-rule="evenodd" clip-rule="evenodd" d="M201 44.8932C207.016 44.8932 211.893 40.0161 211.893 34C211.893 27.9839 207.016 23.1068 201 23.1068C194.984 23.1068 190.107 27.9839 190.107 34C190.107 40.0161 194.984 44.8932 201 44.8932ZM201 68C219.778 68 235 52.7777 235 34C235 15.2223 219.778 0 201 0C182.222 0 167 15.2223 167 34C167 52.7777 182.222 68 201 68Z" fill="white"/>
</svg>
